<svg width="208" height="208" viewBox="0 0 208 208" fill="none" xmlns="http://www.w3.org/2000/svg">
<path d="M104 20.8C62.3999 20.8 31.2 62.4 31.2 114.4C31.2 166.4 72.7999 187.2 104 187.2C135.2 187.2 176.8 166.4 176.8 114.4C176.8 62.4 145.6 20.8 104 20.8Z" fill="#22C55E" fill-opacity="0.1"/>
<path d="M102.882 136.023C100.502 136.023 98.1317 135.728 95.7701 135.138C93.4086 134.549 91.0611 133.685 88.7278 132.546C89.8355 125.3 92.1945 118.529 95.8047 112.235C99.415 105.94 103.984 100.382 109.512 95.5617C102.948 99.1156 97.2586 103.703 92.4432 109.323C87.6279 114.944 84.3074 121.341 82.4818 128.515C82.1895 128.29 81.9203 128.06 81.6741 127.827C81.4279 127.594 81.1587 127.331 80.8664 127.038C77.9639 124.085 75.7408 120.79 74.1972 117.154C72.6536 113.518 71.8818 109.741 71.8818 105.823C71.8818 101.546 72.7241 97.4629 74.4087 93.5732C76.0934 89.6835 78.4459 86.2284 81.4664 83.2079C86.533 78.1412 93.0587 74.8425 101.043 73.3118C109.028 71.781 120.492 71.5669 135.435 72.6694C136.533 87.6283 136.307 99.0732 134.758 107.004C133.21 114.935 129.923 121.413 124.897 126.438C121.861 129.526 118.442 131.895 114.639 133.546C110.837 135.197 106.918 136.023 102.882 136.023Z" fill="#22C55E"/>
<path d="M110.882 146.977V128.908C109.336 128.672 108.026 127.963 106.953 126.781C105.88 125.599 105.343 124.151 105.343 122.439V108.977H107.343V122.439H110.882V108.977H112.882V122.439H116.42V108.977H118.42V122.439C118.42 124.151 117.884 125.599 116.811 126.781C115.738 127.963 114.428 128.672 112.882 128.908V146.977H110.882ZM129.343 146.977V130.977H124.42V117.977C124.42 115.749 125.049 113.775 126.307 112.056C127.564 110.337 129.243 109.336 131.343 109.054V146.977H129.343Z" fill="#064E3B" fill-opacity="0.8"/>
</svg>
